<svg width="67" height="24" viewBox="0 0 67 24" fill="none" xmlns="http://www.w3.org/2000/svg">
<rect width="67" height="24" rx="5" fill="#252525"/>
<path d="M12.5 5C8.35625 5 5 8.21383 5 12.1777C5 15.3497 7.14875 18.0395 10.1281 18.9876C10.5031 19.0552 10.6406 18.8333 10.6406 18.6425C10.6406 18.472 10.6344 18.0204 10.6313 17.4223C8.545 17.8553 8.105 16.4592 8.105 16.4592C7.76375 15.6308 7.27062 15.4095 7.27062 15.4095C6.59125 14.9645 7.32313 14.9735 7.32313 14.9735C8.07625 15.0237 8.47187 15.7128 8.47187 15.7128C9.14062 16.8104 10.2275 16.4933 10.6563 16.3097C10.7238 15.8455 10.9169 15.5291 11.1313 15.3497C9.46563 15.1702 7.715 14.553 7.715 11.8027C7.715 11.0191 8.00563 10.3791 8.48687 9.87667C8.4025 9.69543 8.14938 8.9657 8.5525 7.97696C8.5525 7.97696 9.18063 7.78436 10.615 8.71268C11.215 8.55298 11.8525 8.47402 12.49 8.47043C13.1275 8.47402 13.765 8.55298 14.365 8.71268C15.79 7.78436 16.4181 7.97696 16.4181 7.97696C16.8212 8.9657 16.5681 9.69543 16.4931 9.87667C16.9712 10.3791 17.2619 11.0191 17.2619 11.8027C17.2619 14.5601 15.5088 15.1673 13.84 15.3437C14.1025 15.559 14.3463 15.9993 14.3463 16.6716C14.3463 17.6322 14.3369 18.4038 14.3369 18.6371C14.3369 18.8255 14.4681 19.0498 14.8525 18.978C17.8531 18.0365 20 15.3449 20 12.1777C20 8.21383 16.6419 5 12.5 5Z" fill="white"/>
<path d="M31.8125 10.7102C31.7822 10.4413 31.6572 10.233 31.4375 10.0852C31.2178 9.93561 30.9413 9.8608 30.608 9.8608C30.3693 9.8608 30.1629 9.89867 29.9886 9.97443C29.8144 10.0483 29.679 10.1506 29.5824 10.2812C29.4877 10.41 29.4403 10.5568 29.4403 10.7216C29.4403 10.8598 29.4725 10.9792 29.5369 11.0795C29.6032 11.1799 29.6894 11.2642 29.7955 11.3324C29.9034 11.3987 30.0189 11.4545 30.142 11.5C30.2652 11.5436 30.3835 11.5795 30.4972 11.608L31.0653 11.7557C31.2509 11.8011 31.4413 11.8627 31.6364 11.9403C31.8314 12.018 32.0123 12.1203 32.179 12.2472C32.3456 12.3741 32.4801 12.5312 32.5824 12.7188C32.6866 12.9062 32.7386 13.1307 32.7386 13.392C32.7386 13.7216 32.6534 14.0142 32.483 14.2699C32.3144 14.5256 32.0691 14.7273 31.7472 14.875C31.4271 15.0227 31.0398 15.0966 30.5852 15.0966C30.1496 15.0966 29.7727 15.0275 29.4545 14.8892C29.1364 14.7509 28.8873 14.5549 28.7074 14.3011C28.5275 14.0455 28.428 13.7424 28.4091 13.392H29.2898C29.3068 13.6023 29.375 13.7775 29.4943 13.9176C29.6155 14.0559 29.7699 14.1591 29.9574 14.2273C30.1468 14.2936 30.3542 14.3267 30.5795 14.3267C30.8277 14.3267 31.0483 14.2879 31.2415 14.2102C31.4366 14.1307 31.59 14.0208 31.7017 13.8807C31.8134 13.7386 31.8693 13.5729 31.8693 13.3835C31.8693 13.2112 31.8201 13.0701 31.7216 12.9602C31.625 12.8504 31.4934 12.7595 31.3267 12.6875C31.1619 12.6155 30.9754 12.5521 30.767 12.4972L30.0795 12.3097C29.6136 12.1828 29.2443 11.9962 28.9716 11.75C28.7008 11.5038 28.5653 11.178 28.5653 10.7727C28.5653 10.4375 28.6563 10.1449 28.8381 9.89489C29.0199 9.64489 29.2661 9.45076 29.5767 9.3125C29.8873 9.17235 30.2377 9.10227 30.6278 9.10227C31.0218 9.10227 31.3693 9.1714 31.6705 9.30966C31.9735 9.44792 32.2121 9.63826 32.3864 9.88068C32.5606 10.1212 32.6515 10.3977 32.6591 10.7102H31.8125ZM33.5355 15V10.6364H34.3508V11.3466H34.4048C34.4957 11.1061 34.6444 10.9186 34.8508 10.7841C35.0572 10.6477 35.3044 10.5795 35.5923 10.5795C35.8839 10.5795 36.1283 10.6477 36.3252 10.7841C36.5241 10.9205 36.6709 11.108 36.7656 11.3466H36.811C36.9152 11.1136 37.0809 10.928 37.3082 10.7898C37.5355 10.6496 37.8063 10.5795 38.1207 10.5795C38.5165 10.5795 38.8394 10.7036 39.0894 10.9517C39.3413 11.1998 39.4673 11.5739 39.4673 12.0739V15H38.6178V12.1534C38.6178 11.858 38.5374 11.6439 38.3764 11.5114C38.2154 11.3788 38.0231 11.3125 37.7997 11.3125C37.5231 11.3125 37.3082 11.3977 37.1548 11.5682C37.0014 11.7367 36.9247 11.9536 36.9247 12.2188V15H36.0781V12.0994C36.0781 11.8627 36.0042 11.6723 35.8565 11.5284C35.7088 11.3845 35.5165 11.3125 35.2798 11.3125C35.1188 11.3125 34.9701 11.3551 34.8338 11.4403C34.6993 11.5237 34.5904 11.6402 34.5071 11.7898C34.4256 11.9394 34.3849 12.1127 34.3849 12.3097V15H33.5355ZM41.6917 15.0966C41.4151 15.0966 41.1651 15.0455 40.9417 14.9432C40.7182 14.839 40.5411 14.6884 40.4104 14.4915C40.2816 14.2945 40.2172 14.053 40.2172 13.767C40.2172 13.5208 40.2646 13.3182 40.3593 13.1591C40.454 13 40.5818 12.8741 40.7428 12.7812C40.9038 12.6884 41.0837 12.6184 41.2826 12.571C41.4814 12.5237 41.6841 12.4877 41.8905 12.4631C42.1519 12.4328 42.364 12.4081 42.5269 12.3892C42.6898 12.3684 42.8081 12.3352 42.882 12.2898C42.9559 12.2443 42.9928 12.1705 42.9928 12.0682V12.0483C42.9928 11.8002 42.9227 11.608 42.7826 11.4716C42.6443 11.3352 42.4379 11.267 42.1632 11.267C41.8773 11.267 41.6519 11.3305 41.4871 11.4574C41.3242 11.5824 41.2115 11.7216 41.149 11.875L40.3507 11.6932C40.4454 11.428 40.5837 11.214 40.7655 11.0511C40.9492 10.8864 41.1604 10.767 41.399 10.6932C41.6377 10.6174 41.8886 10.5795 42.1519 10.5795C42.3261 10.5795 42.5108 10.6004 42.7059 10.642C42.9028 10.6818 43.0865 10.7557 43.257 10.8636C43.4293 10.9716 43.5704 11.1259 43.6803 11.3267C43.7901 11.5256 43.8451 11.7841 43.8451 12.1023V15H43.0155V14.4034H42.9814C42.9265 14.5133 42.8441 14.6212 42.7343 14.7273C42.6244 14.8333 42.4833 14.9214 42.311 14.9915C42.1386 15.0616 41.9322 15.0966 41.6917 15.0966ZM41.8763 14.4148C42.1112 14.4148 42.3119 14.3684 42.4786 14.2756C42.6472 14.1828 42.775 14.0616 42.8621 13.9119C42.9511 13.7604 42.9956 13.5985 42.9956 13.4261V12.8636C42.9653 12.8939 42.9066 12.9223 42.8195 12.9489C42.7343 12.9735 42.6367 12.9953 42.5269 13.0142C42.417 13.0312 42.31 13.0473 42.2059 13.0625C42.1017 13.0758 42.0146 13.0871 41.9445 13.0966C41.7797 13.1174 41.6292 13.1525 41.4928 13.2017C41.3583 13.2509 41.2504 13.322 41.1689 13.4148C41.0894 13.5057 41.0496 13.6269 41.0496 13.7784C41.0496 13.9886 41.1273 14.1477 41.2826 14.2557C41.4379 14.3617 41.6358 14.4148 41.8763 14.4148ZM45.6419 9.18182V15H44.7925V9.18182H45.6419ZM47.4501 9.18182V15H46.6006V9.18182H47.4501ZM48.9458 16.6364C48.8189 16.6364 48.7033 16.6259 48.5992 16.6051C48.495 16.5862 48.4174 16.5653 48.3662 16.5426L48.5708 15.8466C48.7261 15.8883 48.8643 15.9063 48.9855 15.9006C49.1068 15.8949 49.2138 15.8494 49.3066 15.7642C49.4013 15.679 49.4846 15.5398 49.5566 15.3466L49.6617 15.0568L48.0651 10.6364H48.9742L50.0793 14.0227H50.1247L51.2299 10.6364H52.1418L50.3435 15.5824C50.2602 15.8097 50.1541 16.0019 50.0253 16.1591C49.8965 16.3182 49.7431 16.4375 49.5651 16.517C49.3871 16.5966 49.1806 16.6364 48.9458 16.6364ZM53.901 15.0966C53.6245 15.0966 53.3745 15.0455 53.151 14.9432C52.9275 14.839 52.7504 14.6884 52.6197 14.4915C52.4909 14.2945 52.4265 14.053 52.4265 13.767C52.4265 13.5208 52.4739 13.3182 52.5686 13.1591C52.6633 13 52.7911 12.8741 52.9521 12.7812C53.1131 12.6884 53.293 12.6184 53.4919 12.571C53.6907 12.5237 53.8934 12.4877 54.0998 12.4631C54.3612 12.4328 54.5733 12.4081 54.7362 12.3892C54.8991 12.3684 55.0174 12.3352 55.0913 12.2898C55.1652 12.2443 55.2021 12.1705 55.2021 12.0682V12.0483C55.2021 11.8002 55.132 11.608 54.9919 11.4716C54.8536 11.3352 54.6472 11.267 54.3726 11.267C54.0866 11.267 53.8612 11.3305 53.6964 11.4574C53.5335 11.5824 53.4209 11.7216 53.3584 11.875L52.5601 11.6932C52.6548 11.428 52.793 11.214 52.9748 11.0511C53.1585 10.8864 53.3697 10.767 53.6084 10.6932C53.847 10.6174 54.0979 10.5795 54.3612 10.5795C54.5354 10.5795 54.7201 10.6004 54.9152 10.642C55.1121 10.6818 55.2959 10.7557 55.4663 10.8636C55.6387 10.9716 55.7798 11.1259 55.8896 11.3267C55.9995 11.5256 56.0544 11.7841 56.0544 12.1023V15H55.2248V14.4034H55.1907C55.1358 14.5133 55.0534 14.6212 54.9436 14.7273C54.8337 14.8333 54.6926 14.9214 54.5203 14.9915C54.3479 15.0616 54.1415 15.0966 53.901 15.0966ZM54.0856 14.4148C54.3205 14.4148 54.5212 14.3684 54.6879 14.2756C54.8565 14.1828 54.9843 14.0616 55.0714 13.9119C55.1604 13.7604 55.2049 13.5985 55.2049 13.4261V12.8636C55.1746 12.8939 55.1159 12.9223 55.0288 12.9489C54.9436 12.9735 54.846 12.9953 54.7362 13.0142C54.6264 13.0312 54.5193 13.0473 54.4152 13.0625C54.311 13.0758 54.2239 13.0871 54.1538 13.0966C53.989 13.1174 53.8385 13.1525 53.7021 13.2017C53.5676 13.2509 53.4597 13.322 53.3782 13.4148C53.2987 13.5057 53.2589 13.6269 53.2589 13.7784C53.2589 13.9886 53.3366 14.1477 53.4919 14.2557C53.6472 14.3617 53.8451 14.4148 54.0856 14.4148ZM58.8825 15.0881C58.4525 15.0881 58.0823 14.9962 57.7717 14.8125C57.4629 14.6269 57.2243 14.3665 57.0557 14.0312C56.8891 13.6941 56.8057 13.2992 56.8057 12.8466C56.8057 12.3996 56.8891 12.0057 57.0557 11.6648C57.2243 11.3239 57.4592 11.0578 57.7603 10.8665C58.0633 10.6752 58.4175 10.5795 58.8228 10.5795C59.069 10.5795 59.3076 10.6203 59.5387 10.7017C59.7698 10.7831 59.9772 10.911 60.1609 11.0852C60.3446 11.2595 60.4895 11.4858 60.5955 11.7642C60.7016 12.0407 60.7546 12.3769 60.7546 12.7727V13.0739H57.2859V12.4375H59.9222C59.9222 12.214 59.8768 12.0161 59.7859 11.8438C59.695 11.6695 59.5671 11.5322 59.4023 11.4318C59.2395 11.3314 59.0482 11.2812 58.8285 11.2812C58.5898 11.2812 58.3815 11.34 58.2035 11.4574C58.0273 11.5729 57.891 11.7244 57.7944 11.9119C57.6997 12.0975 57.6523 12.2992 57.6523 12.517V13.0142C57.6523 13.3059 57.7035 13.554 57.8057 13.7585C57.9099 13.9631 58.0548 14.1193 58.2404 14.2273C58.426 14.3333 58.6429 14.3864 58.891 14.3864C59.052 14.3864 59.1987 14.3636 59.3313 14.3182C59.4639 14.2708 59.5785 14.2008 59.6751 14.108C59.7717 14.0152 59.8455 13.9006 59.8967 13.7642L60.7006 13.9091C60.6362 14.1458 60.5207 14.3532 60.354 14.5312C60.1893 14.7074 59.9819 14.8447 59.7319 14.9432C59.4838 15.0398 59.2006 15.0881 58.8825 15.0881Z" fill="white"/>
</svg>
