<svg width="73" height="24" viewBox="0 0 73 24" fill="none" xmlns="http://www.w3.org/2000/svg">
<rect width="73" height="24" rx="5" fill="#252525"/>
<path d="M17.7794 16.9303H15.5581V13.6817C15.5581 12.9071 15.5413 11.9102 14.4006 11.9102C13.2425 11.9102 13.0656 12.7531 13.0656 13.6246V16.9303H10.8444V10.25H12.9781V11.1606H13.0069C13.305 10.6356 14.03 10.0814 15.1131 10.0814C17.3637 10.0814 17.78 11.4639 17.78 13.2635L17.7794 16.9303ZM8.33562 9.33592C8.16617 9.33599 7.99837 9.30488 7.84182 9.24436C7.68526 9.18383 7.54304 9.09509 7.42327 8.9832C7.30351 8.87132 7.20857 8.73848 7.14387 8.59231C7.07918 8.44614 7.046 8.28949 7.04625 8.13133C7.04637 7.8932 7.12215 7.66046 7.264 7.46253C7.40585 7.26459 7.6074 7.11036 7.84317 7.01934C8.07893 6.92832 8.33832 6.9046 8.58853 6.95117C8.83874 6.99774 9.06854 7.11251 9.24886 7.28097C9.42918 7.44944 9.55193 7.66402 9.60158 7.8976C9.65124 8.13118 9.62557 8.37325 9.52782 8.59321C9.43006 8.81316 9.26462 9.00113 9.05242 9.13333C8.84021 9.26553 8.59076 9.33603 8.33562 9.33592ZM9.44937 16.9303H7.22188V10.25H9.44937V16.9303ZM18.8906 5H6.10688C5.495 5 5 5.4515 5 6.00858V17.9914C5 18.5491 5.495 19 6.10688 19H18.8888C19.5 19 20 18.5491 20 17.9914V6.00858C20 5.4515 19.5 5 18.8888 5H18.8906Z" fill="white"/>
<path d="M30.9006 9.18182H31.7756V13.3068C31.7756 13.6799 31.7017 13.9991 31.554 14.2642C31.4081 14.5294 31.2027 14.732 30.9375 14.8722C30.6723 15.0104 30.3617 15.0795 30.0057 15.0795C29.678 15.0795 29.3835 15.0199 29.1222 14.9006C28.8627 14.7812 28.6572 14.608 28.5057 14.3807C28.3561 14.1515 28.2812 13.8731 28.2812 13.5455H29.1534C29.1534 13.7064 29.1903 13.8456 29.2642 13.9631C29.34 14.0805 29.4432 14.1723 29.5739 14.2386C29.7064 14.303 29.858 14.3352 30.0284 14.3352C30.214 14.3352 30.3712 14.2964 30.5 14.2188C30.6307 14.1392 30.7301 14.0227 30.7983 13.8693C30.8665 13.7159 30.9006 13.5284 30.9006 13.3068V9.18182ZM34.071 15.0966C33.7945 15.0966 33.5445 15.0455 33.321 14.9432C33.0975 14.839 32.9204 14.6884 32.7897 14.4915C32.6609 14.2945 32.5965 14.053 32.5965 13.767C32.5965 13.5208 32.6439 13.3182 32.7386 13.1591C32.8333 13 32.9611 12.8741 33.1221 12.7812C33.2831 12.6884 33.463 12.6184 33.6619 12.571C33.8607 12.5237 34.0634 12.4877 34.2698 12.4631C34.5312 12.4328 34.7433 12.4081 34.9062 12.3892C35.0691 12.3684 35.1874 12.3352 35.2613 12.2898C35.3352 12.2443 35.3721 12.1705 35.3721 12.0682V12.0483C35.3721 11.8002 35.302 11.608 35.1619 11.4716C35.0236 11.3352 34.8172 11.267 34.5426 11.267C34.2566 11.267 34.0312 11.3305 33.8664 11.4574C33.7035 11.5824 33.5909 11.7216 33.5284 11.875L32.7301 11.6932C32.8248 11.428 32.963 11.214 33.1448 11.0511C33.3285 10.8864 33.5397 10.767 33.7784 10.6932C34.017 10.6174 34.2679 10.5795 34.5312 10.5795C34.7054 10.5795 34.8901 10.6004 35.0852 10.642C35.2821 10.6818 35.4659 10.7557 35.6363 10.8636C35.8087 10.9716 35.9498 11.1259 36.0596 11.3267C36.1695 11.5256 36.2244 11.7841 36.2244 12.1023V15H35.3948V14.4034H35.3607C35.3058 14.5133 35.2234 14.6212 35.1136 14.7273C35.0037 14.8333 34.8626 14.9214 34.6903 14.9915C34.5179 15.0616 34.3115 15.0966 34.071 15.0966ZM34.2556 14.4148C34.4905 14.4148 34.6912 14.3684 34.8579 14.2756C35.0265 14.1828 35.1543 14.0616 35.2414 13.9119C35.3304 13.7604 35.3749 13.5985 35.3749 13.4261V12.8636C35.3446 12.8939 35.2859 12.9223 35.1988 12.9489C35.1136 12.9735 35.016 12.9953 34.9062 13.0142C34.7964 13.0312 34.6893 13.0473 34.5852 13.0625C34.481 13.0758 34.3939 13.0871 34.3238 13.0966C34.159 13.1174 34.0085 13.1525 33.8721 13.2017C33.7376 13.2509 33.6297 13.322 33.5482 13.4148C33.4687 13.5057 33.4289 13.6269 33.4289 13.7784C33.4289 13.9886 33.5066 14.1477 33.6619 14.2557C33.8172 14.3617 34.0151 14.4148 34.2556 14.4148ZM37.1718 15V10.6364H38.0212V15H37.1718ZM37.6007 9.96307C37.453 9.96307 37.3261 9.91383 37.2201 9.81534C37.1159 9.71496 37.0638 9.59564 37.0638 9.45739C37.0638 9.31723 37.1159 9.19792 37.2201 9.09943C37.3261 8.99905 37.453 8.94886 37.6007 8.94886C37.7485 8.94886 37.8744 8.99905 37.9786 9.09943C38.0847 9.19792 38.1377 9.31723 38.1377 9.45739C38.1377 9.59564 38.0847 9.71496 37.9786 9.81534C37.8744 9.91383 37.7485 9.96307 37.6007 9.96307ZM38.98 15V10.6364H39.801V11.3295H39.8464C39.926 11.0947 40.0661 10.91 40.2669 10.7756C40.4695 10.6392 40.6987 10.571 40.9544 10.571C41.0074 10.571 41.0699 10.5729 41.1419 10.5767C41.2158 10.5805 41.2735 10.5852 41.3152 10.5909V11.4034C41.2811 11.3939 41.2205 11.3835 41.1334 11.3722C41.0462 11.3589 40.9591 11.3523 40.872 11.3523C40.6712 11.3523 40.4923 11.3949 40.3351 11.4801C40.1798 11.5634 40.0567 11.6799 39.9658 11.8295C39.8748 11.9773 39.8294 12.1458 39.8294 12.3352V15H38.98ZM48.9216 12.0909C48.9216 12.7121 48.808 13.2462 48.5807 13.6932C48.3534 14.1383 48.0419 14.4811 47.6461 14.7216C47.2521 14.9602 46.8042 15.0795 46.3023 15.0795C45.7985 15.0795 45.3487 14.9602 44.9529 14.7216C44.5589 14.4811 44.2483 14.1373 44.0211 13.6903C43.7938 13.2434 43.6801 12.7102 43.6801 12.0909C43.6801 11.4697 43.7938 10.9366 44.0211 10.4915C44.2483 10.0445 44.5589 9.7017 44.9529 9.46307C45.3487 9.22254 45.7985 9.10227 46.3023 9.10227C46.8042 9.10227 47.2521 9.22254 47.6461 9.46307C48.0419 9.7017 48.3534 10.0445 48.5807 10.4915C48.808 10.9366 48.9216 11.4697 48.9216 12.0909ZM48.0523 12.0909C48.0523 11.6174 47.9756 11.2187 47.8222 10.8949C47.6707 10.5691 47.4623 10.3229 47.1972 10.1562C46.9339 9.98769 46.6356 9.90341 46.3023 9.90341C45.9671 9.90341 45.6678 9.98769 45.4046 10.1562C45.1413 10.3229 44.933 10.5691 44.7796 10.8949C44.6281 11.2187 44.5523 11.6174 44.5523 12.0909C44.5523 12.5644 44.6281 12.964 44.7796 13.2898C44.933 13.6136 45.1413 13.8598 45.4046 14.0284C45.6678 14.1951 45.9671 14.2784 46.3023 14.2784C46.6356 14.2784 46.9339 14.1951 47.1972 14.0284C47.4623 13.8598 47.6707 13.6136 47.8222 13.2898C47.9756 12.964 48.0523 12.5644 48.0523 12.0909ZM51.602 15.0881C51.1796 15.0881 50.816 14.9924 50.5111 14.8011C50.208 14.608 49.9751 14.3419 49.8122 14.0028C49.6493 13.6638 49.5679 13.2756 49.5679 12.8381C49.5679 12.3949 49.6512 12.0038 49.8179 11.6648C49.9845 11.3239 50.2194 11.0578 50.5224 10.8665C50.8255 10.6752 51.1825 10.5795 51.5934 10.5795C51.9249 10.5795 52.2203 10.6411 52.4798 10.7642C52.7393 10.8854 52.9486 11.0559 53.1076 11.2756C53.2686 11.4953 53.3643 11.7519 53.3946 12.0455H52.5679C52.5224 11.8409 52.4183 11.6648 52.2554 11.517C52.0944 11.3693 51.8785 11.2955 51.6076 11.2955C51.3709 11.2955 51.1635 11.358 50.9855 11.483C50.8094 11.6061 50.672 11.7822 50.5736 12.0114C50.4751 12.2386 50.4258 12.5076 50.4258 12.8182C50.4258 13.1364 50.4741 13.411 50.5707 13.642C50.6673 13.8731 50.8037 14.0521 50.9798 14.179C51.1578 14.3059 51.3671 14.3693 51.6076 14.3693C51.7686 14.3693 51.9145 14.34 52.0451 14.2812C52.1777 14.2206 52.2885 14.1345 52.3775 14.0227C52.4684 13.911 52.5319 13.7765 52.5679 13.6193H53.3946C53.3643 13.9015 53.2724 14.1534 53.119 14.375C52.9656 14.5966 52.7601 14.7708 52.5025 14.8977C52.2469 15.0246 51.9467 15.0881 51.602 15.0881ZM54.9684 12.4091V15H54.119V9.18182H54.957V11.3466H55.011C55.1133 11.1117 55.2695 10.9252 55.4798 10.7869C55.69 10.6487 55.9646 10.5795 56.3036 10.5795C56.6029 10.5795 56.8642 10.6411 57.0877 10.7642C57.3131 10.8873 57.4873 11.071 57.6104 11.3153C57.7354 11.5578 57.7979 11.8608 57.7979 12.2244V15H56.9485V12.3267C56.9485 12.0066 56.8661 11.7585 56.7013 11.5824C56.5366 11.4044 56.3074 11.3153 56.0138 11.3153C55.8131 11.3153 55.6332 11.358 55.4741 11.4432C55.3169 11.5284 55.1928 11.6534 55.1019 11.8182C55.0129 11.9811 54.9684 12.178 54.9684 12.4091ZM60.5855 15.0881C60.1764 15.0881 59.8194 14.9943 59.5145 14.8068C59.2096 14.6193 58.9728 14.357 58.8043 14.0199C58.6357 13.6828 58.5514 13.2888 58.5514 12.8381C58.5514 12.3854 58.6357 11.9896 58.8043 11.6506C58.9728 11.3116 59.2096 11.0483 59.5145 10.8608C59.8194 10.6733 60.1764 10.5795 60.5855 10.5795C60.9946 10.5795 61.3516 10.6733 61.6566 10.8608C61.9615 11.0483 62.1982 11.3116 62.3668 11.6506C62.5353 11.9896 62.6196 12.3854 62.6196 12.8381C62.6196 13.2888 62.5353 13.6828 62.3668 14.0199C62.1982 14.357 61.9615 14.6193 61.6566 14.8068C61.3516 14.9943 60.9946 15.0881 60.5855 15.0881ZM60.5884 14.375C60.8535 14.375 61.0732 14.3049 61.2475 14.1648C61.4217 14.0246 61.5505 13.8381 61.6338 13.6051C61.7191 13.3722 61.7617 13.1155 61.7617 12.8352C61.7617 12.5568 61.7191 12.3011 61.6338 12.0682C61.5505 11.8333 61.4217 11.6449 61.2475 11.5028C61.0732 11.3608 60.8535 11.2898 60.5884 11.2898C60.3213 11.2898 60.0997 11.3608 59.9236 11.5028C59.7494 11.6449 59.6196 11.8333 59.5344 12.0682C59.4511 12.3011 59.4094 12.5568 59.4094 12.8352C59.4094 13.1155 59.4511 13.3722 59.5344 13.6051C59.6196 13.8381 59.7494 14.0246 59.9236 14.1648C60.0997 14.3049 60.3213 14.375 60.5884 14.375ZM64.6537 15.0966C64.3771 15.0966 64.1271 15.0455 63.9037 14.9432C63.6802 14.839 63.5031 14.6884 63.3724 14.4915C63.2436 14.2945 63.1792 14.053 63.1792 13.767C63.1792 13.5208 63.2266 13.3182 63.3213 13.1591C63.416 13 63.5438 12.8741 63.7048 12.7812C63.8658 12.6884 64.0457 12.6184 64.2446 12.571C64.4434 12.5237 64.6461 12.4877 64.8525 12.4631C65.1139 12.4328 65.326 12.4081 65.4889 12.3892C65.6518 12.3684 65.7701 12.3352 65.844 12.2898C65.9179 12.2443 65.9548 12.1705 65.9548 12.0682V12.0483C65.9548 11.8002 65.8847 11.608 65.7446 11.4716C65.6063 11.3352 65.3999 11.267 65.1253 11.267C64.8393 11.267 64.6139 11.3305 64.4491 11.4574C64.2862 11.5824 64.1735 11.7216 64.111 11.875L63.3128 11.6932C63.4074 11.428 63.5457 11.214 63.7275 11.0511C63.9112 10.8864 64.1224 10.767 64.361 10.6932C64.5997 10.6174 64.8506 10.5795 65.1139 10.5795C65.2881 10.5795 65.4728 10.6004 65.6679 10.642C65.8648 10.6818 66.0485 10.7557 66.219 10.8636C66.3914 10.9716 66.5324 11.1259 66.6423 11.3267C66.7521 11.5256 66.8071 11.7841 66.8071 12.1023V15H65.9775V14.4034H65.9434C65.8885 14.5133 65.8061 14.6212 65.6963 14.7273C65.5864 14.8333 65.4453 14.9214 65.273 14.9915C65.1006 15.0616 64.8942 15.0966 64.6537 15.0966ZM64.8383 14.4148C65.0732 14.4148 65.2739 14.3684 65.4406 14.2756C65.6092 14.1828 65.737 14.0616 65.8241 13.9119C65.9131 13.7604 65.9576 13.5985 65.9576 13.4261V12.8636C65.9273 12.8939 65.8686 12.9223 65.7815 12.9489C65.6963 12.9735 65.5987 12.9953 65.4889 13.0142C65.379 13.0312 65.272 13.0473 65.1679 13.0625C65.0637 13.0758 64.9766 13.0871 64.9065 13.0966C64.7417 13.1174 64.5912 13.1525 64.4548 13.2017C64.3203 13.2509 64.2124 13.322 64.1309 13.4148C64.0514 13.5057 64.0116 13.6269 64.0116 13.7784C64.0116 13.9886 64.0893 14.1477 64.2446 14.2557C64.3999 14.3617 64.5978 14.4148 64.8383 14.4148Z" fill="white"/>
</svg>
