<svg width="76" height="25" viewBox="0 0 76 25" fill="none" xmlns="http://www.w3.org/2000/svg">
<rect width="75.3311" height="24.3493" rx="5" fill="#252525"/>
<path d="M5.03738 5L10.9566 12.9145L5 19.3493H6.34058L11.5555 13.7155L15.7691 19.3493H20.3311L14.0789 10.9896L19.6232 5H18.2826L13.4799 10.1886L9.59943 5H5.03738ZM7.0088 5.98747H9.10462L18.3594 18.3617H16.2636L7.0088 5.98747Z" fill="white"/>
<path d="M32.3794 15.919C31.7923 15.919 31.2715 15.8385 30.8169 15.6775C30.3643 15.5184 29.9826 15.2845 29.672 14.9758C29.3614 14.6652 29.1256 14.2855 28.9646 13.8366C28.8037 13.3878 28.7232 12.8754 28.7232 12.2997C28.7232 11.7391 28.8046 11.2353 28.9675 10.7883C29.1304 10.3413 29.3671 9.96067 29.6777 9.64627C29.9902 9.32999 30.3699 9.08851 30.8169 8.92184C31.2639 8.75517 31.7715 8.67184 32.3396 8.67184C32.8832 8.67184 33.3624 8.75707 33.7771 8.92752C34.1919 9.09798 34.5404 9.33188 34.8226 9.62923C35.1067 9.92658 35.3207 10.2675 35.4646 10.652C35.6086 11.0364 35.6805 11.4427 35.6805 11.8707C35.6805 12.1699 35.6616 12.4626 35.6237 12.7485C35.5859 13.0326 35.5158 13.2902 35.4135 13.5213C35.3131 13.7504 35.1673 13.9342 34.976 14.0724C34.7866 14.2088 34.5404 14.2798 34.2374 14.2855C34.0764 14.2912 33.9201 14.2722 33.7686 14.2287C33.6171 14.1851 33.4883 14.115 33.3823 14.0184C33.2762 13.9199 33.2118 13.7949 33.1891 13.6434H33.155C33.1095 13.7552 33.0338 13.8593 32.9277 13.9559C32.8216 14.0506 32.6862 14.1264 32.5215 14.1832C32.3586 14.2381 32.1692 14.2609 31.9533 14.2514C31.7146 14.2419 31.4997 14.1879 31.3084 14.0895C31.1171 13.991 30.9533 13.8546 30.8169 13.6804C30.6824 13.5061 30.5792 13.2997 30.5073 13.061C30.4353 12.8224 30.3993 12.5573 30.3993 12.2656C30.3993 11.9853 30.44 11.7343 30.5215 11.5128C30.6029 11.2893 30.7137 11.097 30.8538 10.936C30.9959 10.7732 31.1588 10.6444 31.3425 10.5497C31.5262 10.455 31.7203 10.3953 31.9249 10.3707C32.1237 10.348 32.3065 10.3537 32.4732 10.3878C32.6398 10.4218 32.7781 10.4739 32.8879 10.544C32.9997 10.6141 33.0698 10.6908 33.0982 10.7741H33.1351V10.4559H33.834V13.0923C33.834 13.2419 33.8728 13.3688 33.9504 13.473C34.03 13.5771 34.1427 13.6292 34.2885 13.6292C34.4609 13.6292 34.5953 13.5658 34.6919 13.4389C34.7904 13.312 34.8595 13.1169 34.8993 12.8537C34.941 12.5904 34.9618 12.2533 34.9618 11.8423C34.9618 11.5544 34.923 11.2836 34.8453 11.0298C34.7696 10.7741 34.6569 10.5431 34.5073 10.3366C34.3595 10.1283 34.1777 9.9493 33.9618 9.79968C33.7459 9.65006 33.4997 9.53453 33.2232 9.45309C32.9485 9.37165 32.6446 9.33093 32.3112 9.33093C31.8586 9.33093 31.4561 9.40101 31.1038 9.54116C30.7516 9.67942 30.4542 9.87923 30.2118 10.1406C29.9713 10.402 29.7885 10.7154 29.6635 11.0809C29.5404 11.4446 29.4788 11.8527 29.4788 12.3054C29.4788 12.777 29.5423 13.1955 29.6692 13.561C29.7961 13.9247 29.9836 14.2315 30.2317 14.4815C30.4798 14.7315 30.7866 14.9218 31.1521 15.0525C31.5177 15.1813 31.9391 15.2457 32.4163 15.2457C32.6285 15.2457 32.8368 15.2268 33.0413 15.1889C33.2459 15.1529 33.4277 15.1122 33.5868 15.0667C33.7478 15.0194 33.868 14.9815 33.9476 14.9531L34.1465 15.5753C34.029 15.6302 33.8728 15.6842 33.6777 15.7372C33.4845 15.7902 33.2743 15.8338 33.047 15.8679C32.8216 15.902 32.5991 15.919 32.3794 15.919ZM32.118 13.5554C32.3643 13.5554 32.5622 13.5061 32.7118 13.4076C32.8633 13.3092 32.9722 13.1624 33.0385 12.9673C33.1067 12.7703 33.1408 12.5241 33.1408 12.2287C33.1389 11.9408 33.1019 11.7116 33.03 11.5412C32.9599 11.3688 32.8501 11.2457 32.7004 11.1718C32.5527 11.0961 32.3624 11.0582 32.1294 11.0582C31.9154 11.0582 31.7326 11.1103 31.5811 11.2145C31.4315 11.3186 31.3169 11.4597 31.2374 11.6378C31.1597 11.8158 31.1199 12.0137 31.118 12.2315C31.1199 12.4607 31.1521 12.6766 31.2146 12.8792C31.279 13.08 31.3832 13.2429 31.5271 13.3679C31.673 13.4929 31.8699 13.5554 32.118 13.5554ZM39.7018 10.8849C39.6715 10.616 39.5465 10.4076 39.3268 10.2599C39.1071 10.1103 38.8306 10.0355 38.4973 10.0355C38.2586 10.0355 38.0522 10.0734 37.8779 10.1491C37.7037 10.223 37.5683 10.3253 37.4717 10.4559C37.377 10.5847 37.3296 10.7315 37.3296 10.8963C37.3296 11.0345 37.3618 11.1538 37.4262 11.2542C37.4925 11.3546 37.5787 11.4389 37.6848 11.5071C37.7927 11.5734 37.9082 11.6292 38.0313 11.6747C38.1545 11.7182 38.2728 11.7542 38.3865 11.7826L38.9546 11.9304C39.1403 11.9758 39.3306 12.0374 39.5257 12.115C39.7207 12.1927 39.9016 12.2949 40.0683 12.4218C40.2349 12.5487 40.3694 12.7059 40.4717 12.8934C40.5759 13.0809 40.6279 13.3054 40.6279 13.5667C40.6279 13.8963 40.5427 14.1889 40.3723 14.4446C40.2037 14.7003 39.9584 14.902 39.6365 15.0497C39.3164 15.1974 38.9291 15.2713 38.4745 15.2713C38.0389 15.2713 37.662 15.2021 37.3438 15.0639C37.0257 14.9256 36.7766 14.7296 36.5967 14.4758C36.4168 14.2201 36.3173 13.9171 36.2984 13.5667H37.1791C37.1961 13.777 37.2643 13.9521 37.3836 14.0923C37.5048 14.2306 37.6592 14.3338 37.8467 14.402C38.0361 14.4682 38.2435 14.5014 38.4688 14.5014C38.717 14.5014 38.9376 14.4626 39.1308 14.3849C39.3259 14.3054 39.4793 14.1955 39.591 14.0554C39.7028 13.9133 39.7586 13.7476 39.7586 13.5582C39.7586 13.3859 39.7094 13.2448 39.6109 13.1349C39.5143 13.0251 39.3827 12.9342 39.216 12.8622C39.0512 12.7902 38.8647 12.7268 38.6563 12.6718L37.9688 12.4843C37.5029 12.3574 37.1336 12.1709 36.8609 11.9247C36.5901 11.6785 36.4546 11.3527 36.4546 10.9474C36.4546 10.6122 36.5456 10.3196 36.7274 10.0696C36.9092 9.81957 37.1554 9.62544 37.466 9.48718C37.7766 9.34703 38.127 9.27696 38.5171 9.27696C38.9111 9.27696 39.2586 9.34608 39.5598 9.48434C39.8628 9.6226 40.1014 9.81294 40.2757 10.0554C40.4499 10.2959 40.5408 10.5724 40.5484 10.8849H39.7018ZM41.4248 15.1747V10.811H42.2401V11.5213H42.2941C42.385 11.2807 42.5337 11.0932 42.7401 10.9588C42.9465 10.8224 43.1937 10.7542 43.4816 10.7542C43.7732 10.7542 44.0176 10.8224 44.2145 10.9588C44.4134 11.0951 44.5602 11.2826 44.6549 11.5213H44.7003C44.8045 11.2883 44.9702 11.1027 45.1975 10.9645C45.4248 10.8243 45.6956 10.7542 46.01 10.7542C46.4058 10.7542 46.7287 10.8783 46.9787 11.1264C47.2306 11.3745 47.3566 11.7485 47.3566 12.2485V15.1747H46.5072V12.3281C46.5072 12.0326 46.4267 11.8186 46.2657 11.686C46.1047 11.5535 45.9125 11.4872 45.689 11.4872C45.4125 11.4872 45.1975 11.5724 45.0441 11.7429C44.8907 11.9114 44.814 12.1283 44.814 12.3934V15.1747H43.9674V12.2741C43.9674 12.0374 43.8935 11.847 43.7458 11.7031C43.5981 11.5592 43.4058 11.4872 43.1691 11.4872C43.0081 11.4872 42.8594 11.5298 42.7231 11.615C42.5886 11.6984 42.4797 11.8148 42.3964 11.9645C42.3149 12.1141 42.2742 12.2874 42.2742 12.4843V15.1747H41.4248ZM49.581 15.2713C49.3044 15.2713 49.0544 15.2201 48.831 15.1179C48.6075 15.0137 48.4304 14.8631 48.2997 14.6662C48.1709 14.4692 48.1065 14.2277 48.1065 13.9417C48.1065 13.6955 48.1539 13.4929 48.2486 13.3338C48.3433 13.1747 48.4711 13.0487 48.6321 12.9559C48.7931 12.8631 48.973 12.7931 49.1719 12.7457C49.3707 12.6984 49.5734 12.6624 49.7798 12.6378C50.0412 12.6074 50.2533 12.5828 50.4162 12.5639C50.5791 12.5431 50.6974 12.5099 50.7713 12.4645C50.8452 12.419 50.8821 12.3451 50.8821 12.2429V12.223C50.8821 11.9749 50.812 11.7826 50.6719 11.6463C50.5336 11.5099 50.3272 11.4417 50.0526 11.4417C49.7666 11.4417 49.5412 11.5052 49.3764 11.6321C49.2135 11.7571 49.1008 11.8963 49.0383 12.0497L48.2401 11.8679C48.3348 11.6027 48.473 11.3887 48.6548 11.2258C48.8385 11.061 49.0497 10.9417 49.2883 10.8679C49.527 10.7921 49.7779 10.7542 50.0412 10.7542C50.2154 10.7542 50.4001 10.7751 50.5952 10.8167C50.7921 10.8565 50.9758 10.9304 51.1463 11.0383C51.3187 11.1463 51.4598 11.3006 51.5696 11.5014C51.6794 11.7003 51.7344 11.9588 51.7344 12.277V15.1747H50.9048V14.5781H50.8707C50.8158 14.6879 50.7334 14.7959 50.6236 14.902C50.5137 15.008 50.3726 15.0961 50.2003 15.1662C50.0279 15.2362 49.8215 15.2713 49.581 15.2713ZM49.7656 14.5895C50.0005 14.5895 50.2012 14.5431 50.3679 14.4503C50.5365 14.3574 50.6643 14.2362 50.7514 14.0866C50.8404 13.9351 50.8849 13.7732 50.8849 13.6008V13.0383C50.8546 13.0686 50.7959 13.097 50.7088 13.1235C50.6236 13.1482 50.526 13.1699 50.4162 13.1889C50.3063 13.2059 50.1993 13.222 50.0952 13.2372C49.991 13.2504 49.9039 13.2618 49.8338 13.2713C49.669 13.2921 49.5185 13.3271 49.3821 13.3764C49.2476 13.4256 49.1397 13.4967 49.0582 13.5895C48.9787 13.6804 48.9389 13.8016 48.9389 13.9531C48.9389 14.1633 49.0166 14.3224 49.1719 14.4304C49.3272 14.5364 49.5251 14.5895 49.7656 14.5895ZM53.5312 9.3565V15.1747H52.6818V9.3565H53.5312ZM55.3394 9.3565V15.1747H54.49V9.3565H55.3394ZM55.9175 9.3565H56.9146L58.4345 12.0014H58.497L60.0169 9.3565H61.014L58.9033 12.8906V15.1747H58.0283V12.8906L55.9175 9.3565ZM62.1965 15.2713C61.92 15.2713 61.67 15.2201 61.4465 15.1179C61.223 15.0137 61.046 14.8631 60.9153 14.6662C60.7865 14.4692 60.7221 14.2277 60.7221 13.9417C60.7221 13.6955 60.7694 13.4929 60.8641 13.3338C60.9588 13.1747 61.0867 13.0487 61.2477 12.9559C61.4086 12.8631 61.5886 12.7931 61.7874 12.7457C61.9863 12.6984 62.189 12.6624 62.3954 12.6378C62.6568 12.6074 62.8689 12.5828 63.0318 12.5639C63.1946 12.5431 63.313 12.5099 63.3869 12.4645C63.4607 12.419 63.4977 12.3451 63.4977 12.2429V12.223C63.4977 11.9749 63.4276 11.7826 63.2874 11.6463C63.1492 11.5099 62.9427 11.4417 62.6681 11.4417C62.3821 11.4417 62.1568 11.5052 61.992 11.6321C61.8291 11.7571 61.7164 11.8963 61.6539 12.0497L60.8556 11.8679C60.9503 11.6027 61.0886 11.3887 61.2704 11.2258C61.4541 11.061 61.6653 10.9417 61.9039 10.8679C62.1425 10.7921 62.3935 10.7542 62.6568 10.7542C62.831 10.7542 63.0157 10.7751 63.2107 10.8167C63.4077 10.8565 63.5914 10.9304 63.7619 11.0383C63.9342 11.1463 64.0753 11.3006 64.1852 11.5014C64.295 11.7003 64.3499 11.9588 64.3499 12.277V15.1747H63.5204V14.5781H63.4863C63.4314 14.6879 63.349 14.7959 63.2391 14.902C63.1293 15.008 62.9882 15.0961 62.8158 15.1662C62.6435 15.2362 62.4371 15.2713 62.1965 15.2713ZM62.3812 14.5895C62.616 14.5895 62.8168 14.5431 62.9835 14.4503C63.152 14.3574 63.2799 14.2362 63.367 14.0866C63.456 13.9351 63.5005 13.7732 63.5005 13.6008V13.0383C63.4702 13.0686 63.4115 13.097 63.3244 13.1235C63.2391 13.1482 63.1416 13.1699 63.0318 13.1889C62.9219 13.2059 62.8149 13.222 62.7107 13.2372C62.6066 13.2504 62.5194 13.2618 62.4494 13.2713C62.2846 13.2921 62.134 13.3271 61.9977 13.3764C61.8632 13.4256 61.7552 13.4967 61.6738 13.5895C61.5943 13.6804 61.5545 13.8016 61.5545 13.9531C61.5545 14.1633 61.6321 14.3224 61.7874 14.4304C61.9427 14.5364 62.1407 14.5895 62.3812 14.5895ZM67.178 15.2628C66.7481 15.2628 66.3778 15.1709 66.0672 14.9872C65.7585 14.8016 65.5199 14.5412 65.3513 14.2059C65.1846 13.8688 65.1013 13.4739 65.1013 13.0213C65.1013 12.5743 65.1846 12.1804 65.3513 11.8395C65.5199 11.4985 65.7547 11.2324 66.0558 11.0412C66.3589 10.8499 66.713 10.7542 67.1183 10.7542C67.3646 10.7542 67.6032 10.7949 67.8343 10.8764C68.0653 10.9578 68.2727 11.0857 68.4564 11.2599C68.6401 11.4342 68.785 11.6605 68.8911 11.9389C68.9971 12.2154 69.0502 12.5516 69.0502 12.9474V13.2485H65.5814V12.6122H68.2178C68.2178 12.3887 68.1723 12.1908 68.0814 12.0184C67.9905 11.8442 67.8627 11.7069 67.6979 11.6065C67.535 11.5061 67.3437 11.4559 67.124 11.4559C66.8854 11.4559 66.6771 11.5146 66.499 11.6321C66.3229 11.7476 66.1865 11.8991 66.0899 12.0866C65.9952 12.2722 65.9479 12.4739 65.9479 12.6917V13.1889C65.9479 13.4806 65.999 13.7287 66.1013 13.9332C66.2055 14.1378 66.3504 14.294 66.536 14.402C66.7216 14.508 66.9384 14.561 67.1865 14.561C67.3475 14.561 67.4943 14.5383 67.6269 14.4929C67.7594 14.4455 67.874 14.3754 67.9706 14.2826C68.0672 14.1898 68.1411 14.0753 68.1922 13.9389L68.9962 14.0838C68.9318 14.3205 68.8163 14.5279 68.6496 14.7059C68.4848 14.8821 68.2774 15.0194 68.0274 15.1179C67.7793 15.2145 67.4962 15.2628 67.178 15.2628Z" fill="white"/>
</svg>
